<svg width="1024" height="1024" viewBox="0 0 1024 1024" fill="none" xmlns="http://www.w3.org/2000/svg">
  <rect width="1024" height="1024" rx="226" fill="#10120F"/>
  <rect x="92" y="166" width="840" height="692" rx="212" fill="#15271D" stroke="#9BE27C" stroke-opacity="0.24" stroke-width="18"/>
  <rect x="198" y="382" width="628" height="260" rx="130" fill="#9BE27C"/>
  <circle cx="696" cy="512" r="116" fill="#10120F"/>
  <path d="M759 464C744 447 718 445 700 461L696 464L692 461C674 445 648 447 633 464C616 484 620 514 637 535L696 595L755 535C772 514 776 484 759 464Z" fill="#FF1F3D"/>
  <text x="344" y="549" text-anchor="middle" font-size="86" font-weight="900" font-family="PingFang SC, Noto Sans CJK SC, Arial, sans-serif" fill="#10120F">还在</text>
  <circle cx="264" cy="710" r="17" fill="#9BE27C" opacity="0.38"/>
  <circle cx="326" cy="710" r="17" fill="#9BE27C" opacity="0.7"/>
  <circle cx="388" cy="710" r="17" fill="#9BE27C"/>
</svg>
